<svg id="svg" version="1.1" xmlns="http://www.w3.org/2000/svg" viewBox="0 0 305 305" style="display: block;"><path d="M0 0 C100.65 0 201.3 0 305 0 C305 100.65 305 201.3 305 305 C204.35 305 103.7 305 0 305 C0 204.35 0 103.7 0 0 Z " transform="translate(0,0)" style="fill: #FEFEFE;"/><path d="M0 0 C0.65613281 0.50402344 1.31226563 1.00804688 1.98828125 1.52734375 C8.2931656 6.57404719 14.14749173 12.97246416 16 21 C15.55011719 20.62488281 15.10023438 20.24976563 14.63671875 19.86328125 C1.82293321 9.66874646 -11.05223207 7.60591078 -27 9 C-35.35138324 10.9460381 -41.56933858 15.52606599 -48 21 C-55.46113198 27.18081939 -63.16770234 31.27168165 -73 32 C-74.8253125 32.1546875 -74.8253125 32.1546875 -76.6875 32.3125 C-86.54916376 32.14049424 -96.84143874 27.32809144 -103.6640625 20.28125 C-104.83121406 18.89892524 -105.92562542 17.45560427 -107 16 C-94.78526496 -0.22462281 -79.22188113 -12.02417252 -59 -16 C-57.2984375 -16.3403125 -57.2984375 -16.3403125 -55.5625 -16.6875 C-34.75827197 -18.51243228 -16.28359524 -13.14906956 0 0 Z " transform="translate(253,66)" style="fill: #010101;"/><path d="M0 0 C11.98941788 0.22157035 23.88797794 6.64328815 32.59765625 14.57421875 C43.24478718 25.77510117 46.72694236 39.80976028 49.4375 54.625 C49.9270547 57.22601981 50.42280084 59.82581962 50.91796875 62.42578125 C51.14403809 63.62154785 51.37010742 64.81731445 51.60302734 66.04931641 C52.35592329 69.84675307 53.25006631 73.57341148 54.25 77.3125 C52.0016034 78.77335662 49.75137827 80.23125136 47.5 81.6875 C46.86578125 82.1 46.2315625 82.5125 45.578125 82.9375 C42.53644824 84.90191624 39.54809453 86.79670908 36.25 88.3125 C32.54779472 85.6923731 28.88713552 83.02223841 25.25 80.3125 C24.53714844 79.78527344 23.82429688 79.25804688 23.08984375 78.71484375 C8.41895522 66.93595789 -0.72136193 47.34168397 -3.46582031 29.01708984 C-4.41932208 19.94243985 -4.50853635 10.40970492 -3.75 1.3125 C-2.75 0.3125 -2.75 0.3125 0 0 Z " transform="translate(42.75,45.6875)" style="fill: #000000;"/><path d="M0 0 C1.57793233 1.33615238 3.1413845 2.68965606 4.6875 4.0625 C5.37328125 4.65417969 6.0590625 5.24585937 6.765625 5.85546875 C20.25589744 18.31007066 26.68593414 35.58079887 30.6875 53.0625 C30.6875 53.7225 30.6875 54.3825 30.6875 55.0625 C29.81351563 55.15954224 29.81351563 55.15954224 28.921875 55.25854492 C17.52404119 56.56342664 6.76187879 58.21617786 -4.09765625 61.9765625 C-6.8462567 62.90500834 -9.45829043 63.57690669 -12.3125 64.0625 C-15.97515751 55.52352332 -17.26503597 46.48654405 -18.88671875 37.390625 C-21.16207837 25.32026806 -24.90720603 14.92991217 -32.3125 5.0625 C-32.92738281 4.23621094 -33.54226562 3.40992187 -34.17578125 2.55859375 C-42.85321136 -7.57829444 -55.62816081 -12.97139027 -68.3125 -15.9375 C-68.3125 -16.2675 -68.3125 -16.5975 -68.3125 -16.9375 C-44.54095155 -21.25959972 -18.98949301 -14.76317292 0 0 Z " transform="translate(116.3125,54.9375)" style="fill: #000000;"/><path d="M0 0 C3.85195126 2.80800964 7.46704753 5.80189215 11 9 C9.86292317 17.57296086 2.34010358 23.03369452 -4.125 28.125 C-13.93660083 35.57510637 -24.7547385 41.00498549 -37 43 C-37.7940625 43.14953125 -38.588125 43.2990625 -39.40625 43.453125 C-46.03287371 44.11578737 -50.89012775 41.2545553 -56.54711914 38.21118164 C-66.38105031 33.02693368 -77.03784848 30.33108273 -88.0625 29.1875 C-97.76505975 27.86941641 -102.98342448 20.41948145 -108.6875 13.078125 C-109.98964044 11.01640263 -110.57037757 9.38440447 -111 7 C-108.29410066 8.19059571 -106.29967326 9.54311053 -103.9375 11.375 C-95.00087897 17.89892637 -83.81446985 19.78365724 -73 19 C-61.99856551 17.05677026 -53.44494369 12.58906632 -45.3671875 5 C-33.16352932 -5.3106815 -14.18186667 -8.17441936 0 0 Z " transform="translate(256,84)" style="fill: #000000;"/><path d="M0 0 C3.47543269 1.92143966 5.61584243 4.24838736 7.4375 7.8125 C8.41952237 13.37729341 7.86947108 17.38098488 5.1875 22.375 C2.63628505 25.43645794 0.77776522 26.75512 -3.18359375 27.30078125 C-7.92991966 27.32545885 -11.2329442 27.21307701 -15 24 C-18.59324786 20.03503685 -18.50601387 15.77579584 -18.34765625 10.66015625 C-17.84906325 6.8450795 -16.63731193 4.77611782 -14 2 C-9.42536586 -1.22303769 -5.29590407 -1.71958638 0 0 Z " transform="translate(143,190)" style="fill: #FAFAFA;"/><path d="M0 0 C3.25 2.1875 3.25 2.1875 5 5 C4.875 7.625 4.875 7.625 4 10 C3.67 10.99 3.34 11.98 3 13 C3.495 13.5775 3.99 14.155 4.5 14.75 C6 17 6 17 6 20.5625 C5 24 5 24 2.92578125 25.703125 C-0.72410329 27.32096434 -3.90990034 27.33200915 -7.8125 27.1875 C-10.184375 27.125625 -12.55625 27.06375 -15 27 C-15 18.75 -15 10.5 -15 2 C-9.86815008 -0.56592496 -5.65453445 -0.81852936 0 0 Z " transform="translate(116,190)" style="fill: #0F0F0F;"/><path d="M0 0 C1.32 0 2.64 0 4 0 C6.64 6.93 9.28 13.86 12 21 C14.97 14.07 17.94 7.14 21 0 C21.99 0 22.98 0 24 0 C25.3300103 8.97756951 25.08788039 17.94831966 25 27 C24.34 27 23.68 27 23 27 C22.34 20.73 21.68 14.46 21 8 C18.69 14.27 16.38 20.54 14 27 C10 26 10 26 8.99511719 24.32592773 C8.76469727 23.61895752 8.53427734 22.9119873 8.296875 22.18359375 C8.0390625 21.41982422 7.78125 20.65605469 7.515625 19.86914062 C7.26296875 19.06669922 7.0103125 18.26425781 6.75 17.4375 C6.481875 16.63119141 6.21375 15.82488281 5.9375 14.99414062 C5.27701436 13.00088933 4.63658898 11.00101136 4 9 C3.67 9 3.34 9 3 9 C2.67 14.94 2.34 20.88 2 27 C1.01 26.67 0.02 26.34 -1 26 C-0.67 17.42 -0.34 8.84 0 0 Z " transform="translate(112,135)" style="fill: #030303;"/><path d="M0 0 C3.47543269 1.92143966 5.61584243 4.24838736 7.4375 7.8125 C8.41952237 13.37729341 7.86947108 17.38098488 5.1875 22.375 C2.63628505 25.43645794 0.77776522 26.75512 -3.18359375 27.30078125 C-7.92991966 27.32545885 -11.2329442 27.21307701 -15 24 C-18.59324786 20.03503685 -18.50601387 15.77579584 -18.34765625 10.66015625 C-17.84906325 6.8450795 -16.63731193 4.77611782 -14 2 C-9.42536586 -1.22303769 -5.29590407 -1.71958638 0 0 Z M-14 6 C-15.22485812 8.44971624 -15.16722808 10.14234461 -15.1875 12.875 C-15.20167969 13.73867187 -15.21585937 14.60234375 -15.23046875 15.4921875 C-14.98312811 18.18358899 -14.46222126 19.74020351 -13 22 C-9.8092269 24.10300954 -7.77523843 25 -3.9375 25 C-0.04260479 23.67407823 1.56822484 22.33500593 4 19 C5.25918904 14.73575245 5.50373645 11.28732648 3.875 7.125 C1.12597147 4.00943433 -1.31542285 2.30236 -5.4375 1.5625 C-8.99210343 2.16938351 -11.17452662 3.81667966 -14 6 Z " transform="translate(143,190)" style="fill: #0B0B0B;"/><path d="M0 0 C1.86785156 0.01353516 1.86785156 0.01353516 3.7734375 0.02734375 C5.18496094 0.04474609 5.18496094 0.04474609 6.625 0.0625 C6.625 0.7225 6.625 1.3825 6.625 2.0625 C1.345 2.7225 -3.935 3.3825 -9.375 4.0625 C-9.705 6.7025 -10.035 9.3425 -10.375 12.0625 C-9.59125 11.8975 -8.8075 11.7325 -8 11.5625 C-3.43533858 10.93289153 1.02572601 10.98069473 5.625 11.0625 C5.625 12.0525 5.625 13.0425 5.625 14.0625 C-2.295 14.5575 -2.295 14.5575 -10.375 15.0625 C-10.705 18.0325 -11.035 21.0025 -11.375 24.0625 C-10.69050781 23.89878906 -10.00601563 23.73507813 -9.30078125 23.56640625 C-6.0006722 22.99802966 -2.90945931 22.96619233 0.4375 23 C1.59894531 23.00902344 2.76039063 23.01804688 3.95703125 23.02734375 C4.83746094 23.03894531 5.71789062 23.05054688 6.625 23.0625 C6.625 24.0525 6.625 25.0425 6.625 26.0625 C0.025 26.3925 -6.575 26.7225 -13.375 27.0625 C-13.4059375 22.7621875 -13.4059375 22.7621875 -13.4375 18.375 C-13.446604 17.48079346 -13.45570801 16.58658691 -13.46508789 15.6652832 C-13.4790001 11.66350281 -13.38487448 7.96681787 -12.375 4.0625 C-13.035 4.0625 -13.695 4.0625 -14.375 4.0625 C-14.045 3.0725 -13.715 2.0825 -13.375 1.0625 C-8.85684719 0.17972245 -4.59987306 -0.04339503 0 0 Z " transform="translate(192.375,189.9375)" style="fill: #020202;"/><path d="M0 0 C0.99 0 1.98 0 3 0 C3.33 3.96 3.66 7.92 4 12 C4.66386719 11.30132812 5.32773438 10.60265625 6.01171875 9.8828125 C6.89472656 8.97273437 7.77773437 8.06265625 8.6875 7.125 C9.55761719 6.22007812 10.42773438 5.31515625 11.32421875 4.3828125 C13.87943979 2.10736018 15.76901814 1.01295648 19 0 C19.33 0.66 19.66 1.32 20 2 C19.13375 2.68835938 19.13375 2.68835938 18.25 3.390625 C17.13625 4.31101563 17.13625 4.31101563 16 5.25 C15.2575 5.85328125 14.515 6.4565625 13.75 7.078125 C11.55115267 9.05972212 11.55115267 9.05972212 12 13 C14.21615932 15.97647908 16.66028036 18.67218664 19.12890625 21.44140625 C20.05509766 22.70791016 20.05509766 22.70791016 21 24 C20.67 24.99 20.34 25.98 20 27 C16.11807874 23.23225289 12.20468119 19.37202211 9 15 C9 14.34 9 13.68 9 13 C4.56447642 15.80390146 4.56447642 15.80390146 2.37890625 20.3359375 C2.15007416 22.56793055 2.00977395 24.75687845 2 27 C1.34 27 0.68 27 0 27 C0 18.09 0 9.18 0 0 Z " transform="translate(155,190)" style="fill: #060606;"/><path d="M0 0 C2.77615173 1.36898641 3.914302 2.58498126 6 5 C6 6.32 6 7.64 6 9 C5.34 9 4.68 9 4 9 C3.7525 8.38125 3.505 7.7625 3.25 7.125 C1.69097117 4.47465099 0.95795846 3.85625113 -2 3 C-5.5819658 3 -8.76898172 3.07248162 -11.6953125 5.27734375 C-14.08665369 8.43477329 -14 12.14610849 -14 16 C-13.25121518 19.13128196 -12.46805016 20.51523376 -10.25 22.8125 C-6.65419876 24.71028399 -3.58068423 24.48298685 0.25 23.3125 C2.58996751 21.55752436 3.13364225 19.7434662 4 17 C4.99 17.33 5.98 17.66 7 18 C5.68800621 21.93598137 4.37334499 24.51437738 1 27 C-3.64963994 28.12491289 -5.83884959 28.43816997 -10.3125 26.75 C-13.94567606 24.38421093 -15.6188307 23.14350791 -17 19 C-17.51517313 13.62024121 -17.6689224 9.31477851 -15.1875 4.4375 C-10.65203791 -0.61630062 -6.47140607 -0.99328558 0 0 Z " transform="translate(183,135)" style="fill: #070707;"/><path d="M0 0 C0.99 0 1.98 0 3 0 C2.67 3.96 2.34 7.92 2 12 C2.804375 11.835 3.60875 11.67 4.4375 11.5 C8.68895157 10.90330504 12.70856251 10.93497822 17 11 C16.67 7.37 16.34 3.74 16 0 C16.99 0 17.98 0 19 0 C20.01894076 5.84888043 20.11798453 11.50919169 20.0625 17.4375 C20.05798828 18.35982422 20.05347656 19.28214844 20.04882812 20.23242188 C20.03713938 22.48835048 20.02075455 24.74413967 20 27 C19.34 27 18.68 27 18 27 C18 22.71 18 18.42 18 14 C10.08 14.495 10.08 14.495 2 15 C2 18.96 2 22.92 2 27 C1.01 26.67 0.02 26.34 -1 26 C-0.67 17.42 -0.34 8.84 0 0 Z " transform="translate(142,135)" style="fill: #030303;"/><path d="M0 0 C1.7492214 -0.08142927 3.49954542 -0.13938541 5.25 -0.1875 C6.22453125 -0.22230469 7.1990625 -0.25710937 8.203125 -0.29296875 C11.41231982 0.04318993 12.72309523 0.74975688 15 3 C15.4375 5.5625 15.4375 5.5625 15 8 C11.47320901 10.35119399 9.97120515 10.21443452 5.8125 10.125 C4.72582031 10.10695312 3.63914062 10.08890625 2.51953125 10.0703125 C1.27236328 10.03550781 1.27236328 10.03550781 0 10 C0 6.7 0 3.4 0 0 Z " transform="translate(104,204)" style="fill: #FAFAFA;"/><path d="M0 0 C2.375 1.5 2.375 1.5 4 3 C3.125 7.875 3.125 7.875 2 9 C-0.01964199 9.07244053 -2.04167124 9.08377188 -4.0625 9.0625 C-5.16722656 9.05347656 -6.27195312 9.04445312 -7.41015625 9.03515625 C-8.69212891 9.01775391 -8.69212891 9.01775391 -10 9 C-9.67 6.36 -9.34 3.72 -9 1 C-5.70952793 -0.09682402 -3.44927034 -0.28157309 0 0 Z " transform="translate(114,192)" style="fill: #F3F3F3;"/></svg>