<svg width="256" height="256" xmlns="http://www.w3.org/2000/svg" preserveAspectRatio="xMidYMid meet">

 <g>
  <title>background</title>
  <rect fill="none" id="canvas_background" height="402" width="582" y="-1" x="-1"/>
 </g>
 <g>
  <title>Layer 1</title>
  <g id="svg_1" fill="#000000" transform="translate(0 256) scale(0.1 -0.1)">
   <path fill="#666666" id="svg_2" d="m455,2240c-27,-4 -42,-8 -32,-8c43,-4 133,-44 190,-85c126,-90 177,-185 217,-398c30,-160 40,-191 59,-184c80,32 172,56 249,66c51,7 92,15 92,19c0,3 -9,39 -20,79c-56,200 -174,346 -352,436c-123,61 -281,91 -403,75z"/>
   <path fill="#666666" id="svg_3" d="m330,2064c0,-214 64,-379 200,-515c42,-42 91,-84 108,-93c31,-16 32,-16 102,30c55,35 70,50 65,62c-4,10 -22,90 -40,179c-38,187 -69,256 -147,329c-60,56 -159,103 -232,111l-56,6l0,-109z"/>
   <path fill="#666666" id="svg_4" d="m1588,2125c-117,-32 -246,-116 -323,-209l-38,-47l29,-30c16,-17 58,-44 93,-62c56,-27 76,-32 141,-32c89,1 158,28 233,94c84,72 139,94 245,99c106,5 155,-8 235,-64c26,-19 47,-32 47,-28c0,20 -38,69 -97,125c-76,71 -179,130 -269,154c-70,18 -230,18 -296,0z"/>
   <path fill="#666666" id="svg_5" d="m1888,1876c-46,-17 -79,-37 -139,-87c-25,-21 -70,-51 -100,-66c-48,-25 -64,-28 -154,-28c-89,0 -107,3 -162,29c-34,15 -70,37 -79,47c-9,11 -21,19 -26,19c-18,0 23,-57 79,-111c56,-53 61,-56 136,-68c92,-15 188,-46 275,-90c61,-31 65,-31 125,-21c80,15 146,43 229,97c66,43 168,146 168,168c0,16 -65,67 -120,95c-56,29 -176,37 -232,16z"/>
   <path fill="#666666" id="svg_6" d="m1002,1403c-26,-51 -63,-173 -56,-184c9,-16 21,-1 28,36l7,36l52,-3c50,-3 52,-4 60,-40c12,-51 31,-49 24,2c-3,22 -1,40 4,40c5,0 9,5 9,10c0,6 -6,10 -13,10c-8,0 -24,22 -37,50c-13,27 -31,57 -41,66c-16,15 -19,13 -37,-23zm51,-48c9,-20 17,-38 17,-40c0,-3 -18,-5 -40,-5c-22,0 -40,2 -40,4c0,13 32,76 38,76c5,0 16,-16 25,-35z"/>
   <path fill="#666666" id="svg_7" d="m1454,1421c-69,-30 -83,-163 -21,-206c35,-24 104,-19 132,10c24,23 34,55 17,55c-5,0 -14,-11 -20,-25c-17,-36 -55,-48 -98,-30c-58,24 -72,102 -28,154c34,41 80,42 118,4c14,-14 29,-23 33,-19c4,4 -4,18 -18,32c-28,27 -82,39 -115,25z"/>
   <path fill="#666666" id="svg_8" d="m1115,961c-53,-23 -80,-101 -55,-161c22,-54 92,-75 149,-46c57,30 70,125 24,176c-30,33 -82,46 -118,31zm94,-37c26,-22 31,-33 31,-70c0,-58 -32,-94 -85,-94c-53,0 -85,36 -85,94c0,37 5,48 31,70c17,14 41,26 54,26c13,0 37,-12 54,-26z"/>
   <path fill="#666666" id="svg_9" d="m1308,964c-12,-11 -10,-224 2,-224c6,0 10,17 10,38c0,28 7,45 24,61l24,23l48,-62c27,-34 50,-56 52,-50c2,6 -16,37 -41,69l-45,58l41,42c62,61 27,50 -42,-15l-60,-55l-3,61c-2,34 -6,58 -10,54z"/>
   <path fill="#666666" id="svg_10" d="m1595,963c-16,-2 -43,-5 -60,-8l-30,-5l-2,-106c-2,-105 -2,-106 20,-100c12,3 50,6 85,6c39,0 62,4 62,11c0,8 -23,10 -75,7l-75,-5l0,37c0,43 12,50 93,50c27,0 47,5 47,11c0,7 -23,10 -67,8l-68,-4l3,35c2,19 5,36 7,38c1,1 32,5 69,9c36,3 66,10 66,14c0,9 -17,9 -75,2z"/>
   <path fill="#666666" id="svg_11" d="m865,952c-5,-4 -11,-53 -13,-109l-3,-103l58,0c32,0 69,6 83,13c31,16 39,61 14,88c-13,15 -15,22 -6,31c17,17 15,54 -4,72c-16,17 -110,23 -129,8zm106,-12c21,-12 25,-40 7,-58c-7,-7 -34,-12 -61,-12l-49,0l7,33c4,17 13,35 19,39c16,11 54,10 77,-2zm10,-100c21,-12 25,-50 7,-68c-7,-7 -36,-12 -65,-12l-53,0l0,45l0,45l46,0c25,0 54,-5 65,-10z"/>
  </g>
 </g>
</svg>