<?xml version="1.0" standalone="no"?>
<!DOCTYPE svg PUBLIC "-//W3C//DTD SVG 20010904//EN"
 "http://www.w3.org/TR/2001/REC-SVG-20010904/DTD/svg10.dtd">
<svg version="1.0" xmlns="http://www.w3.org/2000/svg"
 width="256.000000pt" height="256.000000pt" viewBox="0 0 256.000000 256.000000"
 preserveAspectRatio="xMidYMid meet">

<g transform="translate(0.000000,256.000000) scale(0.100000,-0.100000)"
fill="#000000" stroke="none">
<path d="M455 2240 c-27 -4 -42 -8 -32 -8 43 -4 133 -44 190 -85 126 -90 177
-185 217 -398 30 -160 40 -191 59 -184 80 32 172 56 249 66 51 7 92 15 92 19
0 3 -9 39 -20 79 -56 200 -174 346 -352 436 -123 61 -281 91 -403 75z"/>
<path d="M330 2064 c0 -214 64 -379 200 -515 42 -42 91 -84 108 -93 31 -16 32
-16 102 30 55 35 70 50 65 62 -4 10 -22 90 -40 179 -38 187 -69 256 -147 329
-60 56 -159 103 -232 111 l-56 6 0 -109z"/>
<path d="M1588 2125 c-117 -32 -246 -116 -323 -209 l-38 -47 29 -30 c16 -17
58 -44 93 -62 56 -27 76 -32 141 -32 89 1 158 28 233 94 84 72 139 94 245 99
106 5 155 -8 235 -64 26 -19 47 -32 47 -28 0 20 -38 69 -97 125 -76 71 -179
130 -269 154 -70 18 -230 18 -296 0z"/>
<path d="M1888 1876 c-46 -17 -79 -37 -139 -87 -25 -21 -70 -51 -100 -66 -48
-25 -64 -28 -154 -28 -89 0 -107 3 -162 29 -34 15 -70 37 -79 47 -9 11 -21 19
-26 19 -18 0 23 -57 79 -111 56 -53 61 -56 136 -68 92 -15 188 -46 275 -90 61
-31 65 -31 125 -21 80 15 146 43 229 97 66 43 168 146 168 168 0 16 -65 67
-120 95 -56 29 -176 37 -232 16z"/>
<path d="M1002 1403 c-26 -51 -63 -173 -56 -184 9 -16 21 -1 28 36 l7 36 52
-3 c50 -3 52 -4 60 -40 12 -51 31 -49 24 2 -3 22 -1 40 4 40 5 0 9 5 9 10 0 6
-6 10 -13 10 -8 0 -24 22 -37 50 -13 27 -31 57 -41 66 -16 15 -19 13 -37 -23z
m51 -48 c9 -20 17 -38 17 -40 0 -3 -18 -5 -40 -5 -22 0 -40 2 -40 4 0 13 32
76 38 76 5 0 16 -16 25 -35z"/>
<path d="M1454 1421 c-69 -30 -83 -163 -21 -206 35 -24 104 -19 132 10 24 23
34 55 17 55 -5 0 -14 -11 -20 -25 -17 -36 -55 -48 -98 -30 -58 24 -72 102 -28
154 34 41 80 42 118 4 14 -14 29 -23 33 -19 4 4 -4 18 -18 32 -28 27 -82 39
-115 25z"/>
<path d="M1115 961 c-53 -23 -80 -101 -55 -161 22 -54 92 -75 149 -46 57 30
70 125 24 176 -30 33 -82 46 -118 31z m94 -37 c26 -22 31 -33 31 -70 0 -58
-32 -94 -85 -94 -53 0 -85 36 -85 94 0 37 5 48 31 70 17 14 41 26 54 26 13 0
37 -12 54 -26z"/>
<path d="M1308 964 c-12 -11 -10 -224 2 -224 6 0 10 17 10 38 0 28 7 45 24 61
l24 23 48 -62 c27 -34 50 -56 52 -50 2 6 -16 37 -41 69 l-45 58 41 42 c62 61
27 50 -42 -15 l-60 -55 -3 61 c-2 34 -6 58 -10 54z"/>
<path d="M1595 963 c-16 -2 -43 -5 -60 -8 l-30 -5 -2 -106 c-2 -105 -2 -106
20 -100 12 3 50 6 85 6 39 0 62 4 62 11 0 8 -23 10 -75 7 l-75 -5 0 37 c0 43
12 50 93 50 27 0 47 5 47 11 0 7 -23 10 -67 8 l-68 -4 3 35 c2 19 5 36 7 38 1
1 32 5 69 9 36 3 66 10 66 14 0 9 -17 9 -75 2z"/>
<path d="M865 952 c-5 -4 -11 -53 -13 -109 l-3 -103 58 0 c32 0 69 6 83 13 31
16 39 61 14 88 -13 15 -15 22 -6 31 17 17 15 54 -4 72 -16 17 -110 23 -129 8z
m106 -12 c21 -12 25 -40 7 -58 -7 -7 -34 -12 -61 -12 l-49 0 7 33 c4 17 13 35
19 39 16 11 54 10 77 -2z m10 -100 c21 -12 25 -50 7 -68 -7 -7 -36 -12 -65
-12 l-53 0 0 45 0 45 46 0 c25 0 54 -5 65 -10z"/>
</g>
</svg>
